<svg width="64px" height="64px" viewBox="0 0 1.92 1.92" fill="none" xmlns="http://www.w3.org/2000/svg"><path d="M1.512 0.348A1.392 1.392 0 0 0 1.163 0.24c-0.015 0.026 -0.032 0.062 -0.044 0.09a1.336 1.336 0 0 0 -0.387 0c-0.012 -0.028 -0.03 -0.064 -0.044 -0.09a1.376 1.376 0 0 0 -0.349 0.108C0.117 0.674 0.057 0.992 0.087 1.306A1.424 1.424 0 0 0 0.515 1.52a1.04 1.04 0 0 0 0.091 -0.148 0.88 0.88 0 0 1 -0.144 -0.069c0.012 -0.009 0.024 -0.018 0.035 -0.027 0.278 0.127 0.579 0.127 0.854 0 0.012 0.009 0.023 0.019 0.035 0.027a0.88 0.88 0 0 1 -0.144 0.069A1.04 1.04 0 0 0 1.333 1.52a1.416 1.416 0 0 0 0.428 -0.214c0.037 -0.364 -0.058 -0.679 -0.249 -0.958ZM0.644 1.112c-0.084 0 -0.152 -0.076 -0.152 -0.169 0 -0.093 0.067 -0.169 0.152 -0.169 0.084 0 0.154 0.076 0.152 0.169 0 0.093 -0.067 0.169 -0.152 0.169Zm0.561 0c-0.084 0 -0.152 -0.076 -0.152 -0.169 0 -0.093 0.067 -0.169 0.152 -0.169 0.084 0 0.154 0.076 0.152 0.169 0 0.093 -0.067 0.169 -0.152 0.169Z" stroke="#000000" stroke-linejoin="round" stroke-width="0.08"/></svg>