<?xml version="1.0" encoding="UTF-8" standalone="no"?>
<!-- Created with Inkscape (http://www.inkscape.org/) -->

<svg
   width="91.196587mm"
   height="75.892982mm"
   viewBox="0 0 91.196587 75.892982"
   version="1.1"
   id="svg1"
   xml:space="preserve"
   xmlns:inkscape="http://www.inkscape.org/namespaces/inkscape"
   xmlns:sodipodi="http://sodipodi.sourceforge.net/DTD/sodipodi-0.dtd"
   xmlns="http://www.w3.org/2000/svg"
   xmlns:svg="http://www.w3.org/2000/svg"><sodipodi:namedview
     id="namedview1"
     pagecolor="#ffffff"
     bordercolor="#000000"
     borderopacity="0.25"
     inkscape:showpageshadow="2"
     inkscape:pageopacity="0.0"
     inkscape:pagecheckerboard="0"
     inkscape:deskcolor="#d1d1d1"
     inkscape:document-units="mm" /><defs
     id="defs1" /><g
     inkscape:label="Layer 1"
     inkscape:groupmode="layer"
     id="layer1"
     transform="translate(-60.583524,-113.5756)"><path
       style="fill:#0768c6;fill-opacity:1"
       d="m 105.7045,188.96614 c -0.57568,-0.91413 -2.54771,-4.46523 -2.54771,-4.58775 0,-0.50893 2.0412,-0.0125 2.54502,0.619 l 0.58053,0.7276 0.33178,-0.7276 c 0.28832,-0.63231 0.48337,-0.72761 1.48924,-0.72761 1.33205,0 1.39309,-0.30814 -0.6421,3.24115 -1.32928,2.31821 -1.25304,2.25506 -1.75676,1.45521 z m -6.485939,-2.58092 c -3.437619,-3.21663 -7.916632,-5.83146 -12.928819,-7.54782 l -2.579828,-0.88342 1.492126,-0.0171 c 6.741414,-0.0772 13.783603,4.18589 15.81522,9.57405 0.15089,0.40018 0.24753,0.72196 0.21475,0.71507 -0.0328,-0.007 -0.93883,-0.83524 -2.013449,-1.84078 z m 11.875729,1.63217 c 0,-4.40703 9.18041,-10.14125 16.13958,-10.08101 l 1.45521,0.0126 -2.38125,0.7863 c -5.22001,1.72368 -10.66326,4.94634 -13.82448,8.18476 -0.76398,0.78264 -1.38906,1.27645 -1.38906,1.09736 z m -10.05417,-2.5915 c -3.108705,-4.97841 -9.116066,-8.13222 -17.568341,-9.22322 -14.027644,-1.81066 -23.031389,-8.67744 -22.886534,-17.45462 0.04478,-2.71365 0.253536,-3.06361 1.008481,-1.69066 3.198765,5.81731 9.53588,9.91012 20.143721,13.00977 12.333547,3.6039 19.518453,9.04323 20.245873,15.3271 0.21595,1.8655 0.20223,1.86596 -0.9432,0.0316 z m 9.2667,0.15358 c 0.0288,-5.4036 7.00463,-11.26746 17.32393,-14.56248 7.70427,-2.46003 9.88708,-3.24465 12.1376,-4.36293 4.51949,-2.24572 8.52791,-5.65387 10.52018,-8.94475 1.10137,-1.81928 1.18376,-1.82378 1.40206,-0.0765 1.12256,8.98468 -8.41412,16.72862 -22.86922,18.57017 -8.27565,1.05431 -14.00674,3.91139 -17.08028,8.51492 -1.44819,2.16909 -1.44122,2.16491 -1.43427,0.86159 z m -6.09359,-4.06789 c -0.002,-0.99788 -0.12214,-1.17687 -1.61499,-2.40117 -1.97355,-1.61853 -5.458624,-5.49161 -7.001037,-7.78047 l -1.142257,-1.69505 -2.547936,-0.86461 c -18.46748,-6.26673 -25.706336,-20.95802 -21.304716,-43.238 0.41686,-2.11005 0.843107,-4.43177 0.947215,-5.15937 0.104107,-0.72761 0.236004,-1.40466 0.293103,-1.50457 0.0571,-0.0999 1.202789,0.36281 2.545976,1.02826 1.343187,0.66544 3.811378,1.82701 5.484867,2.58127 4.705107,2.12064 9.309801,5.04717 12.241057,7.77985 0.693466,0.64649 1.297745,1.12766 1.342841,1.06927 0.0451,-0.0584 0.718697,-1.17639 1.496891,-2.48444 1.720031,-2.89117 3.411235,-5.28102 6.087256,-8.60193 1.11399,-1.38245 2.72346,-3.44762 3.5766,-4.58928 l 1.55117,-2.07573 0.54428,0.75103 c 0.29935,0.41306 1.97303,2.5758 3.71928,4.80608 3.84632,4.91244 5.88889,7.76705 7.34674,10.26748 l 1.09895,1.88486 1.86257,-1.57727 c 3.8378,-3.24991 6.58742,-4.83196 16.60479,-9.55389 l 3.10055,-1.46151 0.16036,0.97255 c 0.0882,0.5349 0.50993,2.79754 0.93718,5.02809 2.11422,11.03757 2.1094,16.66844 -0.0202,23.59342 -2.93179,9.53357 -10.72756,17.01869 -21.39522,20.54268 -1.49793,0.49483 -2.35086,0.9338 -2.64583,1.36173 -1.64671,2.38888 -4.9342,6.20797 -6.92144,8.04065 -2.1222,1.95713 -2.35954,2.27214 -2.43077,3.22615 l -0.0789,1.05723 -1.91823,0.0375 -1.91823,0.0375 z m 3.59609,-5.97305 c -0.0872,-1.23692 -0.40452,-7.84489 -0.70519,-14.68437 -0.66696,-15.17153 -0.94344,-20.44229 -0.99928,-19.05 -0.0233,0.58208 -0.16256,3.32052 -0.30938,6.08542 -0.14682,2.76489 -0.44197,9.01567 -0.65588,13.89062 -0.21392,4.87495 -0.46658,10.47089 -0.56148,12.43542 l -0.17254,3.57187 0.8827,0.86152 0.8827,0.86151 0.89844,-0.86151 0.89844,-0.86152 z M 88.604705,151.25067 c 0,-1.1613 -4.432917,-9.84718 -5.631305,-11.03401 -0.178106,-0.17639 -0.220811,-0.17639 -0.128115,0 0.07648,0.14552 0.451129,0.94919 0.832566,1.78594 0.381436,0.83674 0.980835,2.14643 1.331997,2.91041 1.105149,2.40436 2.424256,5.31523 2.937548,6.48229 0.621307,1.41266 0.657309,1.40474 0.657309,-0.14463 z m 38.079835,-4.93097 c 1.4649,-3.1883 2.62813,-5.83223 2.58495,-5.87542 -0.39197,-0.39196 -5.4752,9.45181 -5.4752,10.60281 0,0.71297 0.051,1.24528 0.1134,1.18291 0.0624,-0.0624 1.31195,-2.722 2.77685,-5.9103 z"
       id="path1"
       inkscape:export-filename="logo.svg"
       inkscape:export-xdpi="96"
       inkscape:export-ydpi="96" /></g></svg>
